<svg width="149" height="33" viewBox="0 0 149 33" fill="none" xmlns="http://www.w3.org/2000/svg">
<g clip-path="url(#clip0_2_238)">
<g clip-path="url(#clip1_2_238)">
<path d="M9.71884 19.3383H16.1684C16.3314 19.3383 16.4723 19.3978 16.5909 19.5167C16.7095 19.6356 16.7688 19.777 16.7688 19.9406V22.3052C16.7688 24.5658 16.0016 26.2426 14.467 27.3357C12.9325 28.4287 10.9048 28.9753 8.38441 28.9753C5.86403 28.9753 3.83632 28.4288 2.30177 27.3357C0.767325 26.2426 0 24.5507 0 22.2606V19.6283C0 18.4831 0.218702 17.4719 0.656105 16.5943C1.09351 15.7169 1.70507 15.0105 2.49088 14.4751C4.0328 13.4341 5.99738 12.9136 8.38441 12.9136C9.57055 12.9136 10.6566 13.0512 11.6425 13.3262C12.6284 13.6014 13.4143 13.9434 13.9999 14.3525C14.5856 14.7614 15.086 15.2038 15.501 15.6798C16.2277 16.5126 16.5909 17.2487 16.5909 17.8883C16.5909 18.0221 16.5427 18.1374 16.4464 18.234C16.35 18.3307 16.235 18.379 16.1016 18.379H11.0755C10.779 18.379 10.564 18.2972 10.4306 18.1336C9.97098 17.5536 9.34457 17.2636 8.55129 17.2636C7.7581 17.2636 7.13533 17.4197 6.68318 17.7321C6.23093 18.0444 6.00485 18.446 6.00485 18.9367V22.7291C6.00485 23.324 6.22729 23.7888 6.67207 24.1233C7.11685 24.4579 7.74325 24.6253 8.55129 24.6253C9.35942 24.6253 9.98209 24.4654 10.4195 24.1456C10.8569 23.8258 11.083 23.4503 11.0977 23.019H9.71884C9.5558 23.019 9.41498 22.9596 9.29639 22.8406C9.17769 22.7216 9.1184 22.5803 9.1184 22.4167V19.9406C9.1184 19.777 9.17769 19.6356 9.29639 19.5167C9.41498 19.3978 9.5557 19.3383 9.71884 19.3383ZM22.8902 28.7732H18.6738C18.5399 28.7732 18.4247 28.7251 18.328 28.6288C18.2313 28.5325 18.1831 28.4399 18.1831 28.351C18.1831 28.2621 18.1905 28.1954 18.2053 28.151L23.0687 13.95C23.2026 13.4611 23.5371 13.2166 24.0726 13.2166H30.2745C30.8099 13.2166 31.1445 13.4611 31.2784 13.95L36.1417 28.151C36.1566 28.1954 36.1641 28.2621 36.1641 28.351C36.1641 28.4399 36.1158 28.5325 36.0191 28.6288C35.9224 28.7251 35.8072 28.7732 35.6732 28.7732H31.4569C30.981 28.7732 30.6463 28.5214 30.453 28.0176L29.8953 26.462H24.4519L23.8941 28.0176C23.7008 28.5214 23.3661 28.7732 22.8902 28.7732ZM28.7575 22.1283L27.1736 17.5058L25.5896 22.1283H28.7575ZM49.8812 13.2166H53.949C54.1119 13.2166 54.2528 13.2759 54.3713 13.3944C54.4899 13.5129 54.5492 13.6537 54.5492 13.8167V28.1732C54.5492 28.3361 54.4899 28.477 54.3714 28.5954C54.2528 28.7139 54.1119 28.7732 53.949 28.7732H49.9255C49.7625 28.7732 49.6217 28.7139 49.5033 28.5954C49.3847 28.477 49.3254 28.3361 49.3254 28.1732V21.2838L47.7026 24.4841C47.6137 24.6618 47.4804 24.7989 47.3025 24.8952C47.1247 24.9915 46.9469 25.0396 46.769 25.0396H45.2574C45.0055 25.0396 44.798 24.973 44.635 24.8396C44.472 24.7063 44.3684 24.5878 44.3238 24.4841L42.7011 21.2838V28.1732C42.7011 28.3361 42.6418 28.477 42.5233 28.5954C42.4047 28.7139 42.264 28.7732 42.1009 28.7732H38.0774C37.9145 28.7732 37.7737 28.7139 37.6552 28.5954C37.5366 28.477 37.4773 28.3361 37.4773 28.1732V13.8167C37.4773 13.6537 37.5366 13.5129 37.6551 13.3944C37.7737 13.2759 37.9145 13.2166 38.0774 13.2166H42.1454C42.5604 13.2166 42.879 13.4166 43.1012 13.8167L46.0132 19.1504L48.9252 13.8167C49.1475 13.4166 49.4661 13.2166 49.8811 13.2166H49.8812ZM63.2598 24.4396H72.1319C72.2949 24.4396 72.4357 24.4989 72.5543 24.6174C72.6729 24.7359 72.7322 24.8767 72.7322 25.0396V28.1732C72.7322 28.3361 72.6729 28.477 72.5544 28.5954C72.4357 28.7139 72.2949 28.7732 72.1319 28.7732H58.079C57.9159 28.7732 57.7751 28.7139 57.6565 28.5954C57.5379 28.477 57.4786 28.3361 57.4786 28.1732V13.8167C57.4786 13.6537 57.5379 13.5129 57.6564 13.3944C57.7751 13.2759 57.9159 13.2166 58.079 13.2166H71.9095C72.0726 13.2166 72.2134 13.2759 72.332 13.3944C72.4506 13.5129 72.5098 13.6537 72.5098 13.8167V16.9502C72.5098 17.1132 72.4506 17.254 72.332 17.3725C72.2134 17.491 72.0726 17.5503 71.9095 17.5503H63.2598V18.9503H70.6866C70.8495 18.9503 70.9905 19.0096 71.109 19.1281C71.2276 19.2466 71.2868 19.3874 71.2868 19.5504V22.4395C71.2868 22.6024 71.2276 22.7432 71.1091 22.8617C70.9905 22.9802 70.8495 23.0395 70.6865 23.0395H63.2598V24.4396ZM85.3805 19.3383H91.8301C91.9931 19.3383 92.134 19.3978 92.2526 19.5167C92.3712 19.6356 92.4305 19.777 92.4305 19.9406V22.3052C92.4305 24.5658 91.6633 26.2426 90.1287 27.3357C88.5942 28.4287 86.5665 28.9753 84.0461 28.9753C81.5257 28.9753 79.498 28.4288 77.9635 27.3357C76.429 26.2426 75.6617 24.5507 75.6617 22.2606V19.6283C75.6617 18.4831 75.8804 17.4719 76.3178 16.5943C76.7552 15.7169 77.3668 15.0105 78.1526 14.4751C79.6945 13.4341 81.6591 12.9136 84.0461 12.9136C85.2322 12.9136 86.3183 13.0512 87.3042 13.3262C88.2901 13.6014 89.076 13.9434 89.6616 14.3525C90.2473 14.7614 90.7477 15.2038 91.1627 15.6798C91.8894 16.5126 92.2526 17.2487 92.2526 17.8883C92.2526 18.0221 92.2044 18.1374 92.1081 18.234C92.0117 18.3307 91.8967 18.379 91.7633 18.379H86.7372C86.4407 18.379 86.2257 18.2972 86.0923 18.1336C85.6327 17.5536 85.0063 17.2636 84.213 17.2636C83.4198 17.2636 82.797 17.4197 82.3449 17.7321C81.8926 18.0444 81.6665 18.446 81.6665 18.9367V22.7291C81.6665 23.324 81.889 23.7888 82.3338 24.1233C82.7785 24.4579 83.4049 24.6253 84.213 24.6253C85.0211 24.6253 85.6438 24.4654 86.0812 24.1456C86.5186 23.8258 86.7447 23.4503 86.7594 23.019H85.3805C85.2175 23.019 85.0767 22.9596 84.9581 22.8406C84.8394 22.7216 84.7801 22.5803 84.7801 22.4167V19.9406C84.7801 19.777 84.8394 19.6356 84.9581 19.5167C85.0767 19.3978 85.2174 19.3383 85.3805 19.3383ZM111.579 28.0843C111.609 28.1436 111.624 28.225 111.624 28.3288C111.624 28.4325 111.576 28.5325 111.479 28.6288C111.383 28.7251 111.269 28.7732 111.136 28.7732H106.099C105.655 28.7732 105.345 28.5881 105.167 28.2176L103.214 23.8173H101.351V28.1732C101.351 28.3361 101.292 28.477 101.173 28.5954C101.055 28.7139 100.914 28.7732 100.752 28.7732H95.959C95.7964 28.7732 95.6559 28.7139 95.5375 28.5954C95.4192 28.477 95.36 28.3361 95.36 28.1732V13.8167C95.36 13.6537 95.4192 13.5129 95.5375 13.3944C95.6559 13.2759 95.7964 13.2166 95.959 13.2166H104.59C106.617 13.2166 108.222 13.6982 109.405 14.6612C110.588 15.6242 111.18 16.9354 111.18 18.5948C111.18 20.6098 110.403 22.069 108.85 22.9728L111.579 28.0843ZM101.351 17.3502V19.706H104.124C104.45 19.706 104.701 19.5986 104.879 19.3837C105.056 19.1688 105.145 18.8985 105.145 18.5725C105.145 18.2466 105.06 17.9614 104.89 17.7169C104.72 17.4725 104.464 17.3502 104.124 17.3502H101.351ZM117.442 28.7732H113.226C113.092 28.7732 112.977 28.7251 112.88 28.6288C112.783 28.5325 112.735 28.4399 112.735 28.351C112.735 28.2621 112.742 28.1954 112.757 28.151L117.621 13.95C117.754 13.4611 118.089 13.2166 118.625 13.2166H124.826C125.362 13.2166 125.696 13.4611 125.83 13.95L130.694 28.151C130.708 28.1954 130.716 28.2621 130.716 28.351C130.716 28.4399 130.668 28.5325 130.571 28.6288C130.474 28.7251 130.359 28.7732 130.225 28.7732H126.009C125.533 28.7732 125.198 28.5214 125.005 28.0176L124.447 26.462H119.004L118.446 28.0176C118.253 28.5214 117.918 28.7732 117.442 28.7732ZM123.309 22.1283L121.725 17.5058L120.141 22.1283H123.309ZM144.433 13.2166H148.501C148.664 13.2166 148.805 13.2759 148.923 13.3944C149.042 13.5129 149.101 13.6537 149.101 13.8167V28.1732C149.101 28.3361 149.042 28.477 148.923 28.5954C148.805 28.7139 148.664 28.7732 148.501 28.7732H144.477C144.314 28.7732 144.174 28.7139 144.055 28.5954C143.937 28.477 143.877 28.3361 143.877 28.1732V21.2838L142.254 24.4841C142.166 24.6618 142.032 24.7989 141.854 24.8952C141.677 24.9915 141.499 25.0396 141.321 25.0396H139.809C139.557 25.0396 139.35 24.973 139.187 24.8396C139.024 24.7063 138.92 24.5878 138.876 24.4841L137.253 21.2838V28.1732C137.253 28.3361 137.194 28.477 137.075 28.5954C136.957 28.7139 136.816 28.7732 136.653 28.7732H132.629C132.466 28.7732 132.326 28.7139 132.207 28.5954C132.088 28.477 132.029 28.3361 132.029 28.1732V13.8167C132.029 13.6537 132.088 13.5129 132.207 13.3944C132.326 13.2759 132.466 13.2166 132.629 13.2166H136.697C137.112 13.2166 137.431 13.4166 137.653 13.8167L140.565 19.1504L143.477 13.8167C143.699 13.4166 144.018 13.2166 144.433 13.2166H144.433Z" fill="#161C27"/>
<path fill-rule="evenodd" clip-rule="evenodd" d="M77.884 10.4887V4.03653L81.3074 5.68593L84.046 3.11475L86.7357 5.68593L90.2081 4.03653V10.4887C90.2178 10.5118 88.3411 8.98363 84.0461 8.95252C79.751 8.9213 77.8938 10.5118 77.884 10.4887Z" fill="#FF9000"/>
</g>
</g>
<defs>
<clipPath id="clip0_2_238">
<rect width="149" height="32.09" fill="white"/>
</clipPath>
<clipPath id="clip1_2_238">
<rect width="149" height="25.8603" fill="white" transform="translate(0 3.11475)"/>
</clipPath>
</defs>
</svg>
