<svg width="130" height="28" viewBox="0 0 130 28" fill="none" xmlns="http://www.w3.org/2000/svg">
<g clip-path="url(#clip0_2_229)">
<g clip-path="url(#clip1_2_229)">
<g clip-path="url(#clip2_2_229)">
<path d="M15.8003 0C12.6737 0 9.73333 1.21533 7.52233 3.422C5.311 5.62867 4.09333 8.56267 4.09333 11.6837V11.7383C3.09333 12.286 2.23133 13.055 1.565 13.9997C0.674454 15.2591 0.197549 16.7642 0.200329 18.3067C0.200329 20.3077 0.981329 22.1893 2.39966 23.6053C3.09593 24.3035 3.92353 24.8568 4.83472 25.2335C5.74592 25.6102 6.72268 25.8027 7.70866 25.8C8.018 25.8 8.32666 25.791 8.62266 25.773C9.63511 25.7144 10.6394 25.5567 11.621 25.302C11.8016 25.2553 11.9713 25.1734 12.1203 25.0611C12.2693 24.9488 12.3946 24.8082 12.4892 24.6473C12.5838 24.4865 12.6457 24.3086 12.6715 24.1238C12.6973 23.939 12.6863 23.7509 12.6393 23.5703C12.5437 23.2056 12.3072 22.8938 11.9819 22.7033C11.6565 22.5128 11.2688 22.4592 10.904 22.5543C10.1019 22.7624 9.28128 22.8912 8.454 22.939C8.21166 22.9537 7.961 22.961 7.70866 22.961C7.09632 22.9627 6.48971 22.8431 5.92379 22.6093C5.35787 22.3754 4.84384 22.0318 4.41133 21.5983C3.97709 21.1675 3.63274 20.6547 3.39825 20.0897C3.16376 19.5247 3.0438 18.9187 3.04533 18.307C3.04533 17.343 3.338 16.4183 3.89133 15.6337C4.4291 14.8678 5.1852 14.2818 6.061 13.952C6.35175 13.8425 6.59855 13.6407 6.76354 13.3774C6.92852 13.1142 7.00257 12.8041 6.97433 12.4947C6.94979 12.225 6.93755 11.9544 6.93766 11.6837C6.93766 6.80667 10.9137 2.839 15.8007 2.839C20.6873 2.839 24.6633 6.80667 24.6633 11.6837C24.6633 11.9517 24.651 12.2253 24.6267 12.497C24.599 12.806 24.6733 13.1156 24.8383 13.3783C25.0032 13.6411 25.2497 13.8426 25.54 13.952C26.4167 14.2827 27.1667 14.864 27.7093 15.6333C28.2618 16.4152 28.5575 17.3496 28.5553 18.307C28.5553 20.873 26.4637 22.961 23.8923 22.961C23.6425 22.9611 23.3927 22.9536 23.1433 22.9387C20.7995 22.8036 18.5402 22.0157 16.6207 20.664L16.6203 20.6637C14.8691 19.4357 13.4592 17.7821 12.5237 15.8587C13.5162 15.2725 14.6477 14.9631 15.8003 14.9627C16.9587 14.9627 18.0913 15.276 19.077 15.858C18.7526 16.5234 18.3703 17.159 17.9343 17.7573C17.8245 17.9081 17.7454 18.079 17.7017 18.2603C17.6581 18.4417 17.6506 18.6299 17.6798 18.8141C17.709 18.9983 17.7743 19.175 17.8719 19.3339C17.9695 19.4929 18.0976 19.631 18.2487 19.7403C18.5539 19.9617 18.9345 20.053 19.307 19.9942C19.6795 19.9354 20.0134 19.7313 20.2357 19.4267C21.0326 18.3333 21.6819 17.1397 22.167 15.8767C22.2729 15.6007 22.2898 15.2985 22.2155 15.0124C22.1411 14.7262 21.9792 14.4705 21.7523 14.281C20.0823 12.8873 17.9762 12.1239 15.801 12.1237C13.6258 12.124 11.5196 12.8875 9.84933 14.281C9.6223 14.4704 9.46018 14.7261 9.38564 15.0122C9.31111 15.2983 9.3279 15.6006 9.43366 15.8767C10.5353 18.7477 12.453 21.205 14.9797 22.9833L14.9803 22.9837C17.3328 24.6406 20.1017 25.6066 22.9743 25.7727C23.2737 25.791 23.5827 25.8 23.892 25.8C28.032 25.8 31.4 22.4387 31.4 18.307C31.4 16.755 30.9283 15.2657 30.0357 13.9997C29.377 13.0626 28.5123 12.289 27.508 11.7383V11.6837C27.508 8.56267 26.2903 5.62867 24.0787 3.422C21.8677 1.21533 18.9273 0 15.8003 0Z" fill="url(#paint0_radial_2_229)"/>
<path d="M46.5029 22.7807C44.9426 22.7807 43.6019 22.525 42.4809 22.014C41.3599 21.5027 40.3329 20.7267 39.4003 19.6863L42.1446 16.969C42.7546 17.6687 43.4313 18.2113 44.1759 18.597C44.9203 18.9823 45.7859 19.1753 46.7723 19.1753C47.6689 19.1753 48.3639 19.014 48.8573 18.691C49.3506 18.368 49.5973 17.9197 49.5973 17.3457C49.5973 16.8257 49.4356 16.404 49.1129 16.0813C48.7899 15.7583 48.3639 15.4803 47.8349 15.2473C47.2622 14.9973 46.6786 14.7729 46.0859 14.5747C45.4428 14.3569 44.8099 14.11 44.1893 13.8347C43.5682 13.5607 42.985 13.208 42.4539 12.7853C41.9249 12.364 41.4989 11.8347 41.1759 11.198C40.8533 10.5613 40.6916 9.75866 40.6916 8.78999C40.6916 7.62433 40.9743 6.61999 41.5393 5.77666C42.1043 4.93366 42.8889 4.29266 43.8933 3.85333C44.8979 3.41366 46.0546 3.19399 47.3639 3.19399C48.6913 3.19399 49.9066 3.42733 51.0096 3.89333C52.1129 4.35999 53.0229 4.99666 53.7403 5.80366L50.9963 8.52099C50.4223 7.92933 49.8436 7.48966 49.2609 7.20266C48.6776 6.91599 48.0186 6.77233 47.2833 6.77233C46.5479 6.77233 45.9649 6.91133 45.5346 7.18899C45.1039 7.46733 44.8889 7.86633 44.8889 8.38666C44.8889 8.87066 45.0503 9.26099 45.3729 9.55666C45.6959 9.85299 46.1219 10.1083 46.6509 10.3237C47.2273 10.5564 47.8106 10.7717 48.3999 10.9693C49.0447 11.1878 49.6777 11.4392 50.2966 11.7227C50.9209 12.0073 51.5045 12.3739 52.0319 12.8127C52.5609 13.2517 52.9869 13.8077 53.3099 14.4803C53.6329 15.153 53.7943 15.9827 53.7943 16.969C53.7943 18.7807 53.1486 20.2023 51.8569 21.2333C50.5656 22.265 48.7809 22.7807 46.5029 22.7807ZM64.7443 22.4847V15.032C64.7443 14.3503 64.5336 13.7987 64.1123 13.3773C63.6906 12.956 63.1569 12.745 62.5113 12.745C62.0629 12.745 61.6683 12.8393 61.3276 13.0277C60.9877 13.215 60.7078 13.4948 60.5203 13.8347C60.3229 14.1847 60.2243 14.5837 60.2243 15.032L58.6369 14.252C58.6369 13.2293 58.8523 12.3327 59.2826 11.5613C59.7133 10.79 60.3143 10.1937 61.0853 9.77199C61.8566 9.35066 62.7446 9.13999 63.7489 9.13999C64.7713 9.13999 65.6683 9.35066 66.4393 9.77199C67.2106 10.1937 67.8069 10.7767 68.2286 11.521C68.6499 12.2653 68.8609 13.131 68.8609 14.1173V22.4847H64.7443ZM56.1079 22.4847V2.95166H60.2246V22.4847H56.1079ZM77.9546 22.7807C76.5376 22.7807 75.2776 22.489 74.1746 21.906C73.0713 21.3233 72.2059 20.5117 71.5779 19.4713C70.9503 18.431 70.6366 17.256 70.6366 15.9467C70.6366 14.6373 70.9459 13.467 71.5646 12.4357C72.1836 11.4043 73.0219 10.5927 74.0803 10.0007C75.1386 9.40899 76.3313 9.11299 77.6586 9.11299C78.9499 9.11299 80.0889 9.39099 81.0753 9.94699C82.0619 10.503 82.8376 11.2743 83.4026 12.2607C83.9676 13.2473 84.2503 14.3773 84.2503 15.6507C84.2503 15.884 84.2369 16.1307 84.2099 16.3907C84.1833 16.6507 84.1336 16.9513 84.0619 17.292L72.7886 17.3187V14.494L82.3133 14.467L80.5373 15.6507C80.5196 14.8973 80.4029 14.274 80.1876 13.7807C79.9723 13.2877 79.6543 12.911 79.2326 12.6507C78.8109 12.3907 78.2953 12.2607 77.6856 12.2607C77.0399 12.2607 76.4793 12.4087 76.0039 12.7047C75.5286 13.0007 75.1609 13.418 74.9006 13.9557C74.6406 14.494 74.5106 15.1487 74.5106 15.92C74.5106 16.691 74.6499 17.35 74.9279 17.8973C75.2059 18.4443 75.6003 18.866 76.1116 19.162C76.6229 19.4577 77.2283 19.6057 77.9276 19.6057C78.5733 19.6057 79.1563 19.4937 79.6766 19.2693C80.1966 19.0453 80.6539 18.709 81.0486 18.2607L83.3086 20.5207C82.6754 21.265 81.8726 21.8463 80.9679 22.2157C80.0533 22.5923 79.0486 22.7807 77.9546 22.7807ZM92.6983 22.7807C91.2816 22.7807 90.0213 22.489 88.9183 21.906C87.8149 21.3233 86.9496 20.5117 86.3216 19.4713C85.6943 18.431 85.3803 17.256 85.3803 15.9467C85.3803 14.6373 85.6896 13.467 86.3086 12.4357C86.9273 11.4043 87.7656 10.5927 88.8239 10.0007C89.8823 9.40899 91.0749 9.11299 92.4023 9.11299C93.6936 9.11299 94.8326 9.39099 95.8189 9.94699C96.8056 10.503 97.5816 11.2743 98.1466 12.2607C98.7116 13.2473 98.9939 14.3773 98.9939 15.6507C98.9939 15.884 98.9806 16.1307 98.9536 16.3907C98.9269 16.6507 98.8773 16.9513 98.8056 17.292L87.5326 17.3187V14.494L97.0569 14.467L95.2813 15.6507C95.2633 14.8973 95.1466 14.274 94.9313 13.7807C94.7163 13.2877 94.3979 12.911 93.9763 12.6507C93.5546 12.3907 93.0389 12.2607 92.4293 12.2607C91.7836 12.2607 91.2229 12.4087 90.7476 12.7047C90.2723 13.0007 89.9046 13.418 89.6446 13.9557C89.3846 14.494 89.2546 15.1487 89.2546 15.92C89.2546 16.691 89.3936 17.35 89.6713 17.8973C89.9496 18.4443 90.3443 18.866 90.8553 19.162C91.3666 19.4577 91.9719 19.6057 92.6713 19.6057C93.3169 19.6057 93.8999 19.4937 94.4203 19.2693C94.9403 19.0453 95.3976 18.709 95.7923 18.2607L98.0523 20.5207C97.419 21.265 96.6163 21.8463 95.7116 22.2157C94.7969 22.5923 93.7923 22.7807 92.6983 22.7807ZM108.518 22.7533C107.639 22.7533 106.832 22.5833 106.097 22.2423C105.361 21.9017 104.761 21.4307 104.294 20.83C103.828 20.229 103.559 19.543 103.487 18.7717V13.2567C103.559 12.4853 103.828 11.7857 104.294 11.158C104.761 10.5303 105.361 10.037 106.097 9.67799C106.832 9.31966 107.639 9.14033 108.518 9.14033C109.756 9.14033 110.854 9.43599 111.814 10.028C112.774 10.62 113.527 11.427 114.074 12.4493C114.621 13.472 114.895 14.6377 114.895 15.947C114.895 17.2563 114.621 18.4223 114.074 19.4447C113.527 20.467 112.774 21.2743 111.814 21.866C110.854 22.458 109.756 22.754 108.518 22.754V22.7533ZM107.765 19.0407C108.357 19.0407 108.872 18.9063 109.312 18.6373C109.752 18.368 110.097 18.0007 110.348 17.534C110.599 17.0677 110.724 16.5387 110.724 15.9467C110.724 15.3367 110.599 14.7987 110.348 14.3323C110.097 13.866 109.751 13.503 109.312 13.2427C108.872 12.9827 108.366 12.8527 107.792 12.8527C107.218 12.8527 106.711 12.9827 106.272 13.2427C105.832 13.5027 105.487 13.866 105.236 14.3327C104.985 14.7987 104.859 15.337 104.859 15.9467C104.859 16.5387 104.98 17.0677 105.223 17.534C105.457 17.9921 105.816 18.3746 106.258 18.6373C106.707 18.9063 107.209 19.0407 107.765 19.0407ZM100.985 28V9.40899H105.102V12.772L104.429 15.9467L105.048 19.1213V28H100.985ZM121.029 22.5383L115.648 9.40899H120.087L123.504 19.821H121.863L125.361 9.40899H129.8L124.204 22.5383H121.029ZM117.666 28L121.594 19.525L124.204 22.5383L121.89 28H117.666Z" fill="#1A1D25"/>
</g>
</g>
</g>
<defs>
<radialGradient id="paint0_radial_2_229" cx="0" cy="0" r="1" gradientUnits="userSpaceOnUse" gradientTransform="translate(1212.29 2133.62) rotate(-25.3083) scale(2673.07 2518.63)">
<stop stop-color="#02FDB6"/>
<stop offset="0.22549" stop-color="#03F1BD"/>
<stop offset="0.50415" stop-color="#087BFF"/>
<stop offset="1" stop-color="#8B40FF"/>
</radialGradient>
<clipPath id="clip0_2_229">
<rect width="130" height="28" fill="white"/>
</clipPath>
<clipPath id="clip1_2_229">
<rect width="130" height="28" fill="white"/>
</clipPath>
<clipPath id="clip2_2_229">
<rect width="129.599" height="28" fill="white" transform="translate(0.200317)"/>
</clipPath>
</defs>
</svg>
